# xmcd
#
# Track frame offsets:
#	150
#	14150
#	34838
#	51142
#	64907
#	80173
#	95439
#	108743
#	127009
#	141234
#	157655
#	171998
#	191531
#	207489
#	221611
#
# Disc length: 3229 seconds
#
# Revision: 0
# Processed by: cddbd v1.4PL0 Copyright (c) Steve Scherf et al.
# Submitted via: audiograbber 1.81.03
#
DISCID=e40c9b0f
DTITLE=Calimeros - 25 Jahre Calimeros - Buongiorno Amore
DYEAR=2002
DGENRE=Dance
TTITLE0=Buongiorne Amore
TTITLE1=1000 Liebesbrife
TTITLE2=Warum blieb die Zeit nicht steh'n
TTITLE3=Kleine Isabella
TTITLE4=Es fing mit einem Lächeln an
TTITLE5=Manuela
TTITLE6=Darling i need you
TTITLE7=Komm zu mir  in meine Arme
TTITLE8=Die Mühlen von Mallorca
TTITLE9=California my love
TTITLE10=So wie Du Marylou
TTITLE11=Kreta
TTITLE12=Ich liebe Dich
TTITLE13=Du bist sexy, Du bist cool
TTITLE14=Du bist wie die Sterne so schön
EXTD=
EXTT0=
EXTT1=
EXTT2=
EXTT3=
EXTT4=
EXTT5=
EXTT6=
EXTT7=
EXTT8=
EXTT9=
EXTT10=
EXTT11=
EXTT12=
EXTT13=
EXTT14=
PLAYORDER=
